<svg xmlns="http://www.w3.org/2000/svg" xmlns:xlink="http://www.w3.org/1999/xlink" version="1.1" x="0px" y="0px" viewBox="0 0 100 125" style="enable-background:new 0 0 100 100;" xml:space="preserve"><path d="M83.1,25.3c-3.8,0-6.9,3.1-6.9,6.9c0,3,2,5.6,4.7,6.5L69,50.9c0,0,0,0,0,0c-0.1,0.1-0.1,0.1-0.2,0.2c0,0-0.1,0.1-0.1,0.1  c-0.1,0-0.2,0.1-0.2,0.1c0,0-0.1,0.1-0.2,0.1c-0.1,0-0.2,0.1-0.3,0.1c-0.1,0-0.1,0-0.2,0c-0.2,0-0.3,0.1-0.5,0.1  c-0.2,0-0.4,0-0.6-0.1c0,0-0.1,0-0.1,0c-0.2-0.1-0.3-0.1-0.5-0.2c0,0,0,0-0.1,0c-0.2-0.1-0.3-0.2-0.4-0.4c0,0-0.1-0.1-0.1-0.1  c-0.1-0.1-0.2-0.3-0.3-0.4c0,0,0,0,0-0.1l-0.3-0.5L52.2,28c2.7-0.9,4.7-3.5,4.7-6.5c0-3.8-3.1-6.9-6.9-6.9s-6.9,3.1-6.9,6.9  c0,3,2,5.6,4.7,6.5l-13,22.5c0,0,0,0,0,0.1c-0.1,0.1-0.2,0.3-0.3,0.4c0,0,0,0.1-0.1,0.1c-0.1,0.1-0.3,0.2-0.4,0.4c0,0-0.1,0-0.1,0.1  c-0.1,0.1-0.3,0.1-0.4,0.2c0,0-0.1,0-0.2,0c-0.2,0-0.4,0.1-0.6,0.1c-0.2,0-0.3,0-0.5-0.1c0,0-0.1,0-0.2,0c-0.1,0-0.2-0.1-0.3-0.1  c0,0-0.1-0.1-0.2-0.1c-0.1-0.1-0.2-0.1-0.2-0.2c0,0-0.1-0.1-0.2-0.1c-0.1-0.1-0.1-0.1-0.2-0.2c0,0,0,0-0.1-0.1l-3.4-3.5l-8.4-8.7  c2.7-0.9,4.7-3.5,4.7-6.5c0-3.8-3.1-6.9-6.9-6.9c-3.8,0-6.9,3.1-6.9,6.9c0,3.4,2.4,6.2,5.7,6.8l3.2,34.4h62.2L84.3,39  c3.2-0.6,5.7-3.4,5.7-6.8C90,28.4,86.9,25.3,83.1,25.3z"/><rect x="19.2" y="77.8" width="61.5" height="7.7"/></svg>